<svg version="1.1" xmlns="http://www.w3.org/2000/svg" viewBox="0 0 107 107" width="107" height="107"><!-- svg-source:excalidraw --><metadata></metadata><defs><style class="style-fonts">
      </style></defs><rect x="0" y="0" width="107.19481108980824" height="107.19481108980824" fill="none"></rect><g stroke-linecap="round" transform="translate(10 10) rotate(0 43.59740554490412 43.59740554490412)"><path d="M21.8 0 C31.57 0, 41.34 0, 65.4 0 C79.93 0, 87.19 7.27, 87.19 21.8 C87.19 32.69, 87.19 43.57, 87.19 65.4 C87.19 79.93, 79.93 87.19, 65.4 87.19 C52.65 87.19, 39.91 87.19, 21.8 87.19 C7.27 87.19, 0 79.93, 0 65.4 C0 50.76, 0 36.13, 0 21.8 C0 7.27, 7.27 0, 21.8 0" stroke="none" stroke-width="0" fill="#4f46e5"></path><path d="M21.8 0 C38.15 0, 54.49 0, 65.4 0 M21.8 0 C38.38 0, 54.96 0, 65.4 0 M65.4 0 C79.93 0, 87.19 7.27, 87.19 21.8 M65.4 0 C79.93 0, 87.19 7.27, 87.19 21.8 M87.19 21.8 C87.19 32.88, 87.19 43.96, 87.19 65.4 M87.19 21.8 C87.19 32.23, 87.19 42.66, 87.19 65.4 M87.19 65.4 C87.19 79.93, 79.93 87.19, 65.4 87.19 M87.19 65.4 C87.19 79.93, 79.93 87.19, 65.4 87.19 M65.4 87.19 C52.23 87.19, 39.06 87.19, 21.8 87.19 M65.4 87.19 C49.52 87.19, 33.64 87.19, 21.8 87.19 M21.8 87.19 C7.27 87.19, 0 79.93, 0 65.4 M21.8 87.19 C7.27 87.19, 0 79.93, 0 65.4 M0 65.4 C0 49.31, 0 33.22, 0 21.8 M0 65.4 C0 55.68, 0 45.97, 0 21.8 M0 21.8 C0 7.27, 7.27 0, 21.8 0 M0 21.8 C0 7.27, 7.27 0, 21.8 0" stroke="transparent" stroke-width="4" fill="none"></path></g><g stroke-linecap="round"><g transform="translate(57.041724792027026 51.10167637171094) rotate(0 -4.750481285653507 0.000002613703387055466)"><path d="M0 0 C0.07 -7.17, 0.14 -14.35, 0.27 -27.59 M0 0 C0.1 -10.31, 0.2 -20.62, 0.27 -27.59 M0.27 -27.59 C-8.59 -14.91, -17.45 -2.23, -23.71 6.71 M0.27 -27.59 C-5.74 -18.99, -11.75 -10.39, -23.71 6.71 M-23.71 6.71 C-19.08 4.82, -14.46 2.93, -8.77 0.59 M-23.71 6.71 C-20.13 5.25, -16.56 3.79, -8.77 0.59 M-8.77 0.59 C-8.93 7.44, -9.09 14.29, -9.41 27.59 M-8.77 0.59 C-8.93 7.4, -9.09 14.2, -9.41 27.59 M-9.41 27.59 C-0.55 15.2, 8.3 2.82, 14.21 -5.44 M-9.41 27.59 C-2.14 17.43, 5.12 7.27, 14.21 -5.44 M14.21 -5.44 C9.46 -3.62, 4.71 -1.8, 0 0 M14.21 -5.44 C10.73 -4.11, 7.25 -2.78, 0 0" stroke="#ffffff" stroke-width="4" fill="none"></path></g></g><mask></mask></svg>